# xmcd
#
# Track frame offsets: 
#        150
#        16280
#        31463
#        53820
#        68415
#        88638
#        104280
#        128145
#        142265
#        166180
#        181408
#        196420
#        214273
#        229305
#        246683
#        261438
#        290108
#        308275
#
# Disc length: 4388 seconds
#
# Revision: 19
# Processed by: cddbd v1.5.2PL0 Copyright (c) Steve Scherf et al.
# Submitted via: ExactAudioCopy v0.95a4
#
DISCID=0d112212
DTITLE=Various Artist - The Alligator Records 20th Anniversary Collection (Di
DTITLE=sc 1)
DYEAR=1991
DGENRE=Blues
TTITLE0=Hound Dog Taylor - Give Me Back My Wig
TTITLE1=James Cotton - No Cuttin' Loose
TTITLE2=Albert Collins and Johnny Copeland - Black Cat Bone
TTITLE3=Professor Longhair - Big Chief
TTITLE4=Koko Taylor - That's Why I'm Crying
TTITLE5=Tinsley Ellis - Double Eyed Whammy
TTITLE6=Lucky Peterson - I'm Free
TTITLE7=A.C. Reed - These Blues Is Killing Me
TTITLE8=Little Charlie and The Nightcats - Rain [Live]
TTITLE9=Kenny Neal - Look But Don't Touch
TTITLE10=Elvin Bishop - Fannie Mae
TTITLE11=Jimmy Johnson - Serves Me Right To Suffer
TTITLE12=The Siegel-Schwall Band - Leavin'
TTITLE13=Clarence "Gatemouth" Brown - Born In Louisiana
TTITLE14=Charlie Musselwhite - Leaving Your Town
TTITLE15=Roy Buchanan - Drowning On Dry Land
TTITLE16=Detroit Junior - If I Hadn't Been High
TTITLE17=Big Walter Hornton - Trouble In Mind
EXTD=
EXTT0=
EXTT1=
EXTT2=
EXTT3=
EXTT4=
EXTT5=
EXTT6=
EXTT7=
EXTT8=
EXTT9=
EXTT10=
EXTT11=
EXTT12=
EXTT13=
EXTT14=
EXTT15=
EXTT16=
EXTT17=
PLAYORDER=
